<?xml version="1.0" encoding="UTF-8"?>
<svg id="artwork" xmlns="http://www.w3.org/2000/svg" viewBox="0 0 134.48 44.78">
  <g>
    <g>
      <path d="M123.29,0H10.67C10.26,0,9.86,0,9.45,0c-.34,0-.68,0-1.03.01-.75,0-1.5.07-2.24.2-.74.13-1.46.36-2.13.7-.67.34-1.28.79-1.81,1.32-.53.53-.98,1.14-1.32,1.81-.34.67-.58,1.39-.7,2.13-.12.74-.19,1.49-.2,2.24-.01.34-.01.69-.02,1.03v25.87c0,.35,0,.68.02,1.03,0,.75.08,1.5.2,2.24.12.74.36,1.46.7,2.13.34.67.78,1.28,1.32,1.81.53.53,1.14.98,1.81,1.32.67.34,1.39.58,2.13.71.74.12,1.49.19,2.24.2.35,0,.69.01,1.03.01.41,0,.81,0,1.23,0h112.61c.4,0,.81,0,1.21,0,.34,0,.69,0,1.03-.01.75,0,1.5-.08,2.24-.2.74-.13,1.46-.37,2.14-.71.67-.34,1.28-.79,1.81-1.32.53-.53.98-1.14,1.32-1.81.34-.67.57-1.39.69-2.13.12-.74.19-1.49.21-2.24,0-.35,0-.68,0-1.03,0-.41,0-.81,0-1.22V10.67c0-.41,0-.82,0-1.22,0-.34,0-.69,0-1.03-.01-.75-.08-1.5-.21-2.24-.12-.74-.36-1.46-.69-2.13-.69-1.35-1.79-2.44-3.13-3.13-.67-.34-1.39-.58-2.14-.7-.74-.12-1.49-.19-2.24-.2-.34,0-.69-.01-1.03-.01-.4,0-.81,0-1.21,0h0Z" style="fill: #a6a6a6; stroke-width: 0px;"/>
      <path d="M9.45,43.8c-.34,0-.67,0-1.01-.01-.7,0-1.4-.07-2.09-.18-.65-.11-1.27-.32-1.85-.61-.58-.29-1.11-.68-1.56-1.14-.46-.46-.85-.98-1.14-1.56-.3-.58-.5-1.21-.61-1.86-.12-.69-.18-1.4-.19-2.1,0-.24-.02-1.02-.02-1.02V9.45s0-.77.02-1c0-.7.07-1.4.19-2.1.11-.65.31-1.27.61-1.86.29-.58.68-1.11,1.14-1.56.46-.46.99-.85,1.57-1.14.58-.29,1.21-.5,1.85-.61.69-.11,1.4-.17,2.1-.18h1.01s115.04-.01,115.04-.01h1.02c.7.02,1.39.08,2.08.2.65.11,1.28.32,1.87.61,1.16.6,2.11,1.55,2.7,2.71.29.58.49,1.2.6,1.85.12.7.18,1.4.19,2.11,0,.32,0,.66,0,1,0,.42,0,.82,0,1.22v23.43c0,.41,0,.8,0,1.2,0,.36,0,.7,0,1.04-.01.7-.08,1.39-.19,2.07-.1.65-.31,1.28-.6,1.87-.3.57-.68,1.1-1.14,1.55-.46.46-.99.85-1.57,1.14-.59.3-1.22.51-1.87.62-.69.11-1.39.17-2.09.18-.33,0-.67.01-1,.01h-1.21s-113.83,0-113.83,0Z" style="fill: #000; stroke-width: 0px;"/>
    </g>
    <g id="_Group_" data-name=" Group ">
      <g id="_Group_2" data-name=" Group 2">
        <g id="_Group_3" data-name=" Group 3">
          <path id="_Path_" data-name=" Path " d="M27.73,22.72c.02-1.9,1.02-3.65,2.64-4.65-1.03-1.46-2.68-2.36-4.47-2.42-1.88-.2-3.7,1.12-4.66,1.12s-2.45-1.11-4.04-1.07c-2.09.07-3.99,1.23-5.01,3.05-2.16,3.75-.55,9.26,1.52,12.29,1.04,1.48,2.25,3.14,3.84,3.08,1.55-.06,2.13-.99,4.01-.99s2.4.99,4.02.95c1.67-.03,2.72-1.49,3.72-2.99.75-1.06,1.32-2.23,1.7-3.46-1.98-.84-3.27-2.78-3.27-4.92Z" style="fill: #fff; stroke-width: 0px;"/>
          <path id="_Path_2" data-name=" Path 2" d="M24.67,13.67c.91-1.09,1.36-2.49,1.25-3.91-1.39.15-2.67.81-3.59,1.86-.91,1.03-1.37,2.39-1.28,3.76,1.41.01,2.74-.62,3.62-1.71Z" style="fill: #fff; stroke-width: 0px;"/>
        </g>
      </g>
      <g>
        <path d="M47.35,30.38h-5.3l-1.27,3.76h-2.24l5.02-13.9h2.33l5.02,13.9h-2.28l-1.27-3.76ZM42.6,28.65h4.2l-2.07-6.1h-.06l-2.07,6.1Z" style="fill: #fff; stroke-width: 0px;"/>
        <path d="M61.75,29.07c0,3.15-1.69,5.17-4.23,5.17-1.31.07-2.55-.62-3.19-1.77h-.05v5.02h-2.08v-13.49h2.01v1.69h.04c.66-1.15,1.9-1.83,3.23-1.79,2.57,0,4.27,2.03,4.27,5.17ZM59.61,29.07c0-2.05-1.06-3.4-2.68-3.4s-2.66,1.38-2.66,3.4,1.07,3.41,2.66,3.41,2.68-1.34,2.68-3.41Z" style="fill: #fff; stroke-width: 0px;"/>
        <path d="M72.9,29.07c0,3.15-1.69,5.17-4.23,5.17-1.31.07-2.55-.62-3.19-1.77h-.05v5.02h-2.08v-13.49h2.01v1.69h.04c.66-1.15,1.9-1.83,3.23-1.79,2.57,0,4.27,2.03,4.27,5.17ZM70.76,29.07c0-2.05-1.06-3.4-2.68-3.4s-2.66,1.38-2.66,3.4,1.07,3.41,2.66,3.41,2.68-1.34,2.68-3.41h0Z" style="fill: #fff; stroke-width: 0px;"/>
        <path d="M80.27,30.26c.15,1.38,1.49,2.28,3.32,2.28s3.01-.91,3.01-2.15c0-1.08-.76-1.73-2.56-2.17l-1.8-.43c-2.55-.62-3.74-1.81-3.74-3.75,0-2.4,2.09-4.05,5.06-4.05s4.95,1.65,5.02,4.05h-2.1c-.13-1.39-1.27-2.22-2.95-2.22s-2.82.85-2.82,2.08c0,.98.73,1.56,2.52,2l1.53.38c2.85.67,4.04,1.82,4.04,3.85,0,2.6-2.07,4.23-5.37,4.23-3.08,0-5.16-1.59-5.3-4.1h2.13Z" style="fill: #fff; stroke-width: 0px;"/>
        <path d="M93.3,21.6v2.4h1.93v1.65h-1.93v5.59c0,.87.39,1.27,1.23,1.27.23,0,.46-.02.68-.05v1.64c-.38.07-.77.1-1.16.1-2.05,0-2.85-.77-2.85-2.74v-5.81h-1.47v-1.65h1.47v-2.4h2.09Z" style="fill: #fff; stroke-width: 0px;"/>
        <path d="M96.34,29.07c0-3.19,1.88-5.19,4.81-5.19s4.81,2,4.81,5.19-1.86,5.19-4.81,5.19-4.81-2-4.81-5.19ZM103.84,29.07c0-2.19-1-3.48-2.69-3.48s-2.69,1.3-2.69,3.48,1,3.48,2.69,3.48,2.69-1.28,2.69-3.48h0Z" style="fill: #fff; stroke-width: 0px;"/>
        <path d="M107.67,24h1.98v1.73h.05c.28-1.11,1.29-1.87,2.44-1.83.24,0,.48.03.71.08v1.95c-.3-.09-.62-.13-.93-.13-1.16-.05-2.13.85-2.18,2.01,0,.11,0,.22.01.32v6.01h-2.08v-10.13Z" style="fill: #fff; stroke-width: 0px;"/>
        <path d="M122.45,31.16c-.28,1.84-2.07,3.1-4.36,3.1-2.95,0-4.78-1.98-4.78-5.14s1.84-5.24,4.69-5.24,4.57,1.93,4.57,5v.71h-7.16v.13c-.13,1.45.94,2.73,2.4,2.86.11,0,.22.01.33,0,1.01.09,1.96-.49,2.34-1.43h1.98ZM115.41,28.14h5.07c.07-1.34-.95-2.49-2.3-2.57-.06,0-.13,0-.19,0-1.42,0-2.57,1.13-2.58,2.55,0,0,0,.01,0,.02Z" style="fill: #fff; stroke-width: 0px;"/>
      </g>
    </g>
  </g>
  <g id="_Group_4" data-name=" Group 4">
    <g>
      <path d="M42.34,9.77c1.63-.12,3.04,1.11,3.16,2.74.01.19,0,.39-.02.58,0,2.13-1.15,3.36-3.14,3.36h-2.41v-6.68h2.41ZM40.97,15.51h1.26c1.16.07,2.15-.81,2.22-1.97,0-.14,0-.29-.02-.43.16-1.15-.65-2.21-1.8-2.37-.13-.02-.27-.02-.4-.02h-1.26v4.79Z" style="fill: #fff; stroke-width: 0px;"/>
      <path d="M46.66,13.93c-.13-1.31.84-2.48,2.15-2.6,1.31-.13,2.48.84,2.6,2.15.01.15.01.3,0,.45.13,1.31-.83,2.48-2.15,2.61-1.31.13-2.48-.83-2.61-2.15-.01-.15-.01-.31,0-.46ZM50.39,13.93c0-1.09-.49-1.73-1.35-1.73s-1.35.64-1.35,1.73.49,1.74,1.35,1.74c.86,0,1.35-.64,1.35-1.74h0Z" style="fill: #fff; stroke-width: 0px;"/>
      <path d="M57.73,16.45h-1.03l-1.04-3.71h-.08l-1.04,3.71h-1.02l-1.39-5.04h1.01l.9,3.85h.07l1.04-3.85h.95l1.04,3.85h.08l.9-3.85h.99l-1.38,5.04Z" style="fill: #fff; stroke-width: 0px;"/>
      <path d="M60.28,11.41h.96v.8h.07c.26-.59.86-.95,1.5-.9.9-.07,1.69.61,1.76,1.51,0,.12,0,.24-.01.36v3.26h-.99v-3.01c0-.81-.35-1.21-1.09-1.21-.64-.03-1.18.46-1.21,1.1,0,.06,0,.12,0,.18v2.95h-.99v-5.04Z" style="fill: #fff; stroke-width: 0px;"/>
      <path d="M66.15,9.44h.99v7.01h-.99v-7.01Z" style="fill: #fff; stroke-width: 0px;"/>
      <path d="M68.53,13.93c-.13-1.31.84-2.48,2.15-2.6,1.31-.13,2.48.84,2.6,2.15.01.15.01.3,0,.45.13,1.31-.83,2.48-2.15,2.61s-2.48-.83-2.61-2.15c-.01-.15-.01-.31,0-.46ZM72.26,13.93c0-1.09-.49-1.73-1.35-1.73s-1.35.64-1.35,1.73.49,1.74,1.35,1.74c.86,0,1.35-.64,1.35-1.74Z" style="fill: #fff; stroke-width: 0px;"/>
      <path d="M74.33,15.03c0-.91.68-1.43,1.87-1.5l1.37-.08v-.44c0-.53-.35-.83-1.03-.83-.56,0-.94.2-1.05.56h-.96c.1-.87.92-1.42,2.06-1.42,1.26,0,1.98.63,1.98,1.69v3.44h-.96v-.71h-.08c-.33.52-.9.82-1.51.79-.84.09-1.59-.52-1.67-1.36,0-.05,0-.1,0-.15ZM77.57,14.6v-.42l-1.23.08c-.69.05-1.01.28-1.01.73s.39.72.93.72c.65.07,1.24-.41,1.3-1.06,0-.01,0-.03,0-.04Z" style="fill: #fff; stroke-width: 0px;"/>
      <path d="M79.87,13.93c0-1.59.82-2.6,2.09-2.6.64-.03,1.25.31,1.55.88h.07v-2.77h.99v7.01h-.95v-.8h-.08c-.32.56-.93.9-1.58.88-1.28,0-2.09-1.01-2.09-2.61ZM80.9,13.93c0,1.07.5,1.71,1.35,1.71s1.36-.65,1.36-1.71-.52-1.71-1.36-1.71-1.35.65-1.35,1.71h0Z" style="fill: #fff; stroke-width: 0px;"/>
      <path d="M88.69,13.93c-.13-1.31.84-2.48,2.15-2.6s2.48.84,2.6,2.15c.01.15.01.3,0,.45.13,1.31-.83,2.48-2.15,2.61-1.31.13-2.48-.83-2.61-2.15-.01-.15-.01-.31,0-.46ZM92.42,13.93c0-1.09-.49-1.73-1.35-1.73s-1.35.64-1.35,1.73.49,1.74,1.35,1.74c.86,0,1.35-.64,1.35-1.74Z" style="fill: #fff; stroke-width: 0px;"/>
      <path d="M94.78,11.41h.96v.8h.07c.26-.59.86-.95,1.5-.9.9-.07,1.69.61,1.76,1.51,0,.12,0,.24-.01.36v3.26h-.99v-3.01c0-.81-.35-1.21-1.09-1.21-.64-.03-1.18.46-1.21,1.1,0,.06,0,.12,0,.18v2.95h-.99v-5.04Z" style="fill: #fff; stroke-width: 0px;"/>
      <path d="M104.68,10.16v1.28h1.09v.84h-1.09v2.59c0,.53.22.76.71.76.13,0,.25,0,.38-.02v.83c-.18.03-.36.05-.54.05-1.11,0-1.55-.39-1.55-1.36v-2.85h-.8v-.84h.8v-1.28h1Z" style="fill: #fff; stroke-width: 0px;"/>
      <path d="M107.13,9.44h.99v2.78h.08c.27-.59.89-.96,1.54-.9.92-.05,1.7.65,1.75,1.57,0,.1,0,.21-.01.31v3.25h-1v-3.01c0-.81-.38-1.21-1.08-1.21-.65-.05-1.22.43-1.27,1.08,0,.07,0,.13,0,.2v2.94h-.99v-7.01Z" style="fill: #fff; stroke-width: 0px;"/>
      <path d="M117.27,15.09c-.28.95-1.2,1.57-2.18,1.46-1.26.03-2.32-.96-2.35-2.23,0-.12,0-.25.02-.37-.17-1.27.72-2.44,2-2.61.11-.01.22-.02.33-.02,1.4,0,2.25.96,2.25,2.54v.35h-3.56v.06c-.06.73.48,1.38,1.22,1.44.04,0,.08,0,.13,0,.49.06.96-.18,1.2-.61h.96ZM113.77,13.47h2.55c.05-.67-.45-1.25-1.12-1.3-.04,0-.08,0-.12,0-.71,0-1.3.56-1.31,1.27,0,.01,0,.02,0,.03h0Z" style="fill: #fff; stroke-width: 0px;"/>
    </g>
  </g>
</svg>