<?xml version="1.0" encoding="utf-8"?>
<!-- Generator: Adobe Illustrator 16.0.0, SVG Export Plug-In . SVG Version: 6.00 Build 0)  -->
<!DOCTYPE svg PUBLIC "-//W3C//DTD SVG 1.1//EN" "http://www.w3.org/Graphics/SVG/1.1/DTD/svg11.dtd">
<svg version="1.1" id="Layer_1" xmlns="http://www.w3.org/2000/svg" xmlns:xlink="http://www.w3.org/1999/xlink" x="0px" y="0px"
	 width="31.879px" height="32px" viewBox="0 0 31.879 32" enable-background="new 0 0 31.879 32" xml:space="preserve">
<path fill="#F08AA3" d="M0.339,16c0-4.311,3.491-7.801,7.8-7.801c2.458,0,4.768,1.155,6.241,3.12l1.56,2.081l1.56-2.081
	c1.473-1.965,3.783-3.12,6.24-3.12c4.311,0,7.801,3.49,7.801,7.801c0,4.309-3.49,7.801-7.801,7.801c-2.457,0-4.768-1.155-6.24-3.12
	l-1.56-2.082l-1.56,2.082c-1.473,1.965-3.783,3.12-6.241,3.12C3.83,23.801,0.339,20.309,0.339,16z M13.99,16l-2.106-2.809
	c-0.882-1.18-2.271-1.872-3.744-1.872c-2.583,0-4.68,2.097-4.68,4.681s2.097,4.681,4.68,4.681c1.473,0,2.862-0.691,3.744-1.873
	L13.99,16z M17.89,16l2.105,2.808c0.883,1.182,2.272,1.873,3.744,1.873c2.584,0,4.681-2.097,4.681-4.681s-2.097-4.681-4.681-4.681
	c-1.472,0-2.861,0.692-3.744,1.872L17.89,16z"/>
</svg>
